<?xml version="1.0" encoding="utf-8"?>
<svg version="1.1" id="Layer_1" xmlns="http://www.w3.org/2000/svg" xmlns:xlink="http://www.w3.org/1999/xlink" x="0px" y="0px"
	 viewBox="0 0 1469.021 1670.143" enable-background="new 0 0 1469.021 1670.143" xml:space="preserve">
<g>
	<path fill="#FFFFFF" stroke="#FFFFFF" stroke-width="0.5" d="M1176.168,38.153c16.659-3.332,33.717-3.065,50.609-3.082
		c44.512,0.15,88.608,13.927,125.957,37.999c23.489,13.943,44.196,33.334,57.456,57.373c8.879,16.126,14.643,33.801,18.041,51.859
		c3.848,21.54,9.246,42.946,9.829,64.919c1.166,36.266-7.713,72.766-25.188,104.567c-24.755,44.179-63.787,78.946-107.299,104.101
		c-25.954,15.06-53.924,26.121-82.128,36.133c-10.712,3.365-21.073,7.73-31.402,12.061c-24.805,12.011-44.862,31.702-62.237,52.725
		c-19.791,23.589-36.733,49.41-52.275,75.964c-33.701,57.49-61.354,118.311-86.476,179.965
		c-15.743,38.665-30.319,77.797-43.763,117.328c53.541,25.688,102.352,61.921,140.683,107.416
		c34.867,40.564,60.471,89.191,73.748,141.033c12.028,46.811,13.127,96.238,3.982,143.649
		c-8.779,44.529-26.654,87.159-52.026,124.774c-47.278,70.55-118.194,123.741-196.99,154.427
		c-104.034,40.914-222.078,44.546-328.661,11.095c-91.457-28.52-175.167-85.993-228.708-166.121
		c-37.149-55.641-58.756-122.375-57.273-189.527c-0.516-48.31,11.411-96.338,31.868-139.95
		c25.105-53.458,64.236-99.603,110.431-136.069c23.272-18.275,48.56-33.784,74.798-47.411
		c-7.247-25.088-17.142-49.327-26.238-73.765c-23.139-60.088-48.594-119.36-78.363-176.483
		c-22.773-42.98-47.511-85.343-79.296-122.359c-14.41-16.725-30.602-32.251-49.66-43.579
		c-17.525-10.062-37.266-15.076-55.907-22.506c-57.439-20.34-111.88-53.142-150.795-100.686
		c-23.789-29.286-40.881-64.436-45.962-102.035c-3.715-26.721-2.416-54.141,3.815-80.379c3.515-18.475,6.13-37.316,13.477-54.774
		c11.844-30.785,34.867-56.657,63.103-73.432c20.99-14.093,44.246-24.722,68.618-31.385
		c100.203-27.054,213.232,9.912,280.717,88.108c18.824,20.524,34.101,43.929,49.56,67.018
		c42.063,70.267,63.087,150.629,77.78,230.524c8.413,44.396,15.243,89.041,23.089,133.52
		c12.844,80.362,23.339,161.174,28.586,242.402c0.633,26.188,1.849,52.525-1.399,78.596c43.996-7.463,88.891-11.345,133.47-7.363
		c19.407,0.833,38.582,4.115,57.706,7.297c-6.397-21.073-5.098-43.313-4.998-65.053c2.232-65.852,10.162-131.354,19.124-196.59
		c5.414-39.798,11.961-79.412,18.924-118.96c11.395-68.301,22.373-137.052,43.529-203.154c8.329-26.088,18.225-51.709,30.419-76.231
		c13.66-28.803,31.768-55.241,51.093-80.479c20.19-26.754,44.462-50.509,72.449-69.051
		C1096.49,60.21,1135.438,44.367,1176.168,38.153 M1109.267,208.206c-36.549,2.932-71.25,20.257-96.937,46.195
		c-17.142,17.942-30.685,38.982-42.613,60.638c-29.936,58.089-39.298,123.675-48.977,187.511
		c-12.261,77.097-21.14,154.793-24.922,232.773c-0.317,13.86-1.183,27.853,1.099,41.614c1.316,10.378,14.277,16.959,23.439,11.744
		c11.428-5.947,18.758-17.192,25.638-27.67c1.949-3.615,5.048-7.03,5.414-11.211c0.233-0.566,0.683-1.699,0.9-2.249
		c3.398-3.182,5.431-7.43,6.697-11.844c5.481-18.025,11.428-35.916,18.108-53.541c1.449-3.865,2.565-7.846,3.498-11.844
		c1.849-2.615,3.415-5.414,4.565-8.396c4.814-12.694,10.128-25.188,15.693-37.566c12.927-25.954,28.486-50.643,46.561-73.332
		c11.245-14.243,23.039-28.453,38.349-38.465c7.347-1.882,13.694-6.13,20.49-9.312c7.063-3.415,14.477-6.214,21.007-10.645
		c15.443-4.415,29.386-12.777,43.963-19.341c4.948-2.582,10.745-4.315,14.36-8.829c27.087-14.926,47.811-41.397,55.324-71.5
		c7.197-26.954,4.798-55.374-0.8-82.378c-2.782-19.491-7.63-39.298-19.541-55.374c-8.146-11.878-19.974-20.474-31.918-28.17
		C1165.207,212.238,1136.837,205.741,1109.267,208.206 M271.296,241.407c-13.577,9.179-24.755,21.906-31.585,36.849
		c-6.88,13.56-8.929,28.753-11.511,43.546c-5.714,27.42-7.313,56.49,0.783,83.61c8.529,29.17,29.453,54.441,56.14,68.801
		c3.248,3.848,8.296,5.297,12.627,7.546c13.81,6.38,26.987,14.66,41.88,18.341c7.063,5.048,15.293,7.946,23.022,11.761
		c6.797,3.165,13.21,7.33,20.607,9.062c6.014,5.164,12.944,9.246,18.175,15.326c20.424,22.289,38.782,46.578,53.708,72.899
		c11.445,18.525,19.457,38.848,27.57,58.972c1.066,2.565,2.499,4.964,4.115,7.247c1.916,8.646,5.631,16.725,8.529,25.071
		c4.714,13.277,9.362,26.587,13.227,40.148c1.316,4.881,3.432,9.512,6.247,13.727c0.05,0.483,0.133,1.483,0.167,1.982
		c0.666,0.65,2.016,1.966,2.682,2.632c0.017,2.399,1.566,4.448,2.599,6.53c5.531,9.179,11.528,18.275,19.474,25.571
		c4.381,3.932,9.595,7.68,15.709,7.863c8.446,0.5,16.159-6.73,16.859-15.06c1.633-13.327,0.75-26.821,0.733-40.231
		c-4.098-81.245-13.56-162.157-26.521-242.452c-9.179-60.971-19.224-123.308-47.944-178.632
		c-13.144-23.206-27.72-46.028-47.094-64.586c-28.537-26.171-66.885-42.646-105.917-41.397
		C318.941,216.352,292.67,225.698,271.296,241.407 M589.413,1117.826c-7.513,1.133-14.676,4.381-20.524,9.229
		c-16.592,13.094-20.424,39.065-8.329,56.373c10.911,17.209,34.883,23.872,53.208,15.109c12.294-5.614,21.606-17.342,23.989-30.669
		c2.715-13.26-1.599-27.67-10.961-37.382C617.399,1120.508,602.923,1115.594,589.413,1117.826 M869.297,1117.826
		c-13.044,1.916-24.938,10.312-31.002,22.04c-7.546,13.777-6.414,31.818,2.782,44.562c8.329,11.944,23.039,19.024,37.582,17.842
		c17.908-0.833,34.217-14.476,38.382-31.885c4.065-15.093-1.249-32.068-12.927-42.363
		C894.752,1119.758,881.641,1115.727,869.297,1117.826 M1057.458,1239.202c-26.604,4.198-50.193,22.789-60.655,47.578
		c-13.544,30.252-5.314,68.584,19.474,90.59c16.226,14.793,38.715,22.856,60.671,20.84c23.755-1.999,46.745-14.826,59.805-34.967
		c13.61-19.208,16.992-44.662,10.761-67.168c-6.38-21.773-22.173-40.897-42.963-50.26
		C1090.026,1238.735,1073.35,1236.736,1057.458,1239.202 M700.677,1253.745c-8.363,5.064-16.242,12.844-17.392,23.022
		c-1.133,9.745,3.149,19.141,8.096,27.271c9.645,15.093,25.338,27.803,43.846,28.803c0.067,6.897,0.05,13.793,0.1,20.707
		c-0.316,2.116,0.716,5.214-1.549,6.597c-17.825,13.16-37.382,24.055-58.156,31.818c-28.203,10.612-59.738,15.11-89.141,6.764
		c-24.155-6.48-45.129-21.59-61.621-40.081c-0.8,0.8-1.599,1.599-2.382,2.432c14.91,16.376,33.001,30.369,54.008,37.899
		c23.872,8.813,50.243,9.179,74.898,3.615c31.019-7.013,60.022-21.623,85.41-40.597c15.11,11.661,31.852,21.123,49.31,28.82
		c26.338,11.328,55.457,18.125,84.21,14.493c26.238-2.932,50.943-15.426,70.017-33.501c3.832-3.881,8.479-7.28,10.645-12.444
		c-0.9,0.183-2.699,0.55-3.615,0.733c-14.31,15.359-31.469,28.57-51.376,35.716c-22.389,8.346-47.061,9.112-70.317,4.215
		c-31.502-6.597-61.021-21.273-86.692-40.498c-1.133-8.813-0.3-17.858-0.3-26.737c19.291-1.199,35.283-15.109,44.812-31.102
		c5.281-9.329,9.629-21.023,4.881-31.452c-5.897-12.977-19.674-20.074-32.868-23.422
		C737.243,1242.7,717.069,1244.216,700.677,1253.745 M409.614,1252.612c-25.005,0.816-49.477,13.977-63.32,34.9
		c-10.045,14.81-15.026,33.018-13.777,50.876c1.149,16.459,7.58,32.351,17.825,45.229c15.393,18.091,38.782,29.936,62.804,28.986
		c18.608,0.283,36.983-6.68,51.093-18.724c18.091-15.043,28.753-38.598,28.27-62.104c0.033-27.787-15.809-55.124-40.214-68.534
		C439.517,1255.594,424.441,1252.162,409.614,1252.612z"/>
	<path fill="#D6ACAD" stroke="#D6ACAD" stroke-width="0.5" d="M1109.267,208.206c27.57-2.465,55.94,4.031,79.396,18.808
		c11.944,7.696,23.772,16.292,31.918,28.17c11.911,16.076,16.759,35.883,19.541,55.374c5.597,27.004,7.996,55.424,0.8,82.378
		c-7.513,30.102-28.237,56.573-55.324,71.5c4.465-6.147,11.545-10.262,14.327-17.575c3.815-8.846,7.68-18.091,7.347-27.92
		c-0.283-10.179-1.533-20.324-3.515-30.302c-2.099-11.045-10.695-19.158-18.941-26.071c-17.325-13.86-41.447-17.975-62.62-11.728
		c-22.922,6.68-42.696,20.823-61.004,35.7c-9.945,8.912-21.34,17.092-27.304,29.419c-15.06,28.92-30.569,57.606-44.429,87.125
		c-23.572,56.023-40.131,116.145-39.531,177.333c-0.217,17.758,0.133,35.533,0,53.291c-0.033,5.397,0.716,10.762,1.483,16.092
		c-0.367,4.181-3.465,7.596-5.414,11.211c-6.88,10.478-14.21,21.723-25.638,27.67c-9.162,5.214-22.123-1.366-23.439-11.744
		c-2.282-13.76-1.416-27.754-1.099-41.614c3.782-77.98,12.661-155.676,24.922-232.773c9.679-63.836,19.041-129.422,48.977-187.511
		c11.928-21.656,25.471-42.696,42.613-60.638C1038.017,228.463,1072.717,211.138,1109.267,208.206z"/>
	<path fill="#D6ACAD" stroke="#D6ACAD" stroke-width="0.5" d="M271.296,241.407c21.373-15.709,47.644-25.055,74.282-24.872
		c39.032-1.249,77.38,15.226,105.917,41.397c19.374,18.558,33.951,41.38,47.094,64.586c28.72,55.324,38.765,117.661,47.944,178.632
		c12.961,80.295,22.423,161.207,26.521,242.452c0.017,13.41,0.9,26.904-0.733,40.231c-0.7,8.329-8.413,15.559-16.859,15.06
		c-6.114-0.183-11.328-3.931-15.709-7.863c-7.946-7.297-13.943-16.392-19.474-25.571c-1.033-2.082-2.582-4.131-2.599-6.53
		c2.149-24.438,1.149-49.01,1.266-73.515c0.067-58.789-15.992-116.345-38.032-170.403c-15.043-31.269-30.802-62.187-47.111-92.823
		c-5.231-9.895-14.36-16.759-22.573-24.039c-16.342-14.36-34.417-27.104-54.591-35.433c-14.626-6.23-31.235-7.88-46.745-4.331
		c-16.009,4.415-30.885,14.043-40.348,27.837c-4.848,6.88-5.531,15.493-6.497,23.589c-1.033,9.945-3.165,20.224-0.067,30.036
		c2.266,7.263,4.798,14.593,8.846,21.09c3.898,4.931,9.412,8.296,13.294,13.277c-26.687-14.36-47.611-39.631-56.14-68.801
		c-8.096-27.12-6.497-56.19-0.783-83.61c2.582-14.793,4.631-29.986,11.511-43.546C246.542,263.313,257.72,250.586,271.296,241.407z"
		/>
	<path fill="#F5C5C5" stroke="#F5C5C5" stroke-width="0.5" d="M1122.194,350.839c21.173-6.247,45.295-2.132,62.62,11.728
		c8.246,6.913,16.842,15.026,18.941,26.071c1.982,9.979,3.232,20.124,3.515,30.302c0.333,9.829-3.532,19.074-7.347,27.92
		c-2.782,7.313-9.862,11.428-14.327,17.575c-3.615,4.515-9.412,6.247-14.36,8.829c-14.576,6.564-28.52,14.926-43.963,19.341
		c-11.111,1.799-21.107,7.197-31.069,12.128c-3.931,1.949-7.28,4.814-10.428,7.83c-15.309,10.012-27.104,24.222-38.349,38.465
		c-18.075,22.689-33.634,47.378-46.561,73.332c-5.564,12.377-10.878,24.872-15.693,37.566c-1.149,2.982-2.715,5.781-4.565,8.396
		c-6.414,8.229-8.463,18.674-12.444,28.137c-5.914,16.142-11.161,32.551-15.859,49.093c-0.217,0.55-0.666,1.683-0.9,2.249
		c-0.766-5.331-1.516-10.695-1.483-16.092c0.133-17.758-0.217-35.533,0-53.291c-0.6-61.188,15.959-121.309,39.531-177.333
		c13.86-29.519,29.369-58.206,44.429-87.125c5.964-12.327,17.358-20.507,27.304-29.419
		C1079.498,371.662,1099.271,357.519,1122.194,350.839z"/>
	<path fill="#F5C5C5" stroke="#F5C5C5" stroke-width="0.5" d="M309.895,358.385c15.509-3.548,32.118-1.899,46.745,4.331
		c20.174,8.329,38.249,21.073,54.591,35.433c8.213,7.28,17.342,14.143,22.573,24.039c16.309,30.636,32.068,61.554,47.111,92.823
		c22.04,54.058,38.099,111.614,38.032,170.403c-0.117,24.505,0.883,49.077-1.266,73.515c-0.666-0.666-2.016-1.982-2.682-2.632
		c-0.033-0.5-0.117-1.499-0.167-1.982c-0.3-4.215-1.05-8.363-2.332-12.377c-4.298-13.327-8.546-26.671-13.594-39.748
		c-3.648-9.096-5.897-18.974-12.078-26.821c-1.616-2.282-3.049-4.681-4.115-7.247c-8.113-20.124-16.126-40.448-27.57-58.972
		c-14.926-26.321-33.284-50.609-53.708-72.899c-5.231-6.08-12.161-10.162-18.175-15.326c-3.548-3.315-7.596-6.064-11.944-8.213
		c-10.129-5.164-20.374-10.612-31.685-12.611c-14.893-3.682-28.07-11.961-41.88-18.341c-4.331-2.249-9.379-3.698-12.627-7.546
		c-3.882-4.981-9.396-8.346-13.294-13.277c-4.048-6.497-6.58-13.827-8.846-21.09c-3.099-9.812-0.966-20.09,0.067-30.036
		c0.966-8.096,1.649-16.709,6.497-23.589C279.009,372.429,293.886,362.8,309.895,358.385z"/>
	<path fill="#D2B2B2" stroke="#D2B2B2" stroke-width="0.5" d="M1096.206,504.733c9.962-4.931,19.957-10.328,31.069-12.128
		c-6.53,4.431-13.943,7.23-21.007,10.645c-6.797,3.182-13.144,7.43-20.49,9.312C1088.926,509.547,1092.275,506.682,1096.206,504.733
		z"/>
	<path fill="#D2B3B5" stroke="#D2B3B5" stroke-width="0.5" d="M339.631,500.102c11.311,1.999,21.556,7.446,31.685,12.611
		c4.348,2.149,8.396,4.898,11.944,8.213c-7.397-1.733-13.81-5.897-20.607-9.062C354.924,508.048,346.694,505.149,339.631,500.102z"
		/>
	<path fill="#D2B0B1" stroke="#D2B0B1" stroke-width="0.5" d="M968.167,698.458c3.982-9.462,6.031-19.907,12.444-28.137
		c-0.933,3.998-2.049,7.98-3.498,11.844c-6.68,17.625-12.627,35.517-18.108,53.541c-1.266,4.415-3.298,8.663-6.697,11.844
		C957.005,731.009,962.253,714.6,968.167,698.458z"/>
	<path fill="#D2AFB1" stroke="#D2AFB1" stroke-width="0.5" d="M486.828,675.369c6.18,7.846,8.429,17.725,12.078,26.821
		c5.048,13.077,9.296,26.421,13.594,39.748c1.283,4.015,2.032,8.163,2.332,12.377c-2.815-4.215-4.931-8.846-6.247-13.727
		c-3.865-13.56-8.513-26.871-13.227-40.148C492.459,692.094,488.744,684.014,486.828,675.369z"/>
	<path stroke="#000000" stroke-width="0.5" d="M589.413,1117.826c13.51-2.232,27.987,2.682,37.382,12.661
		c9.362,9.712,13.677,24.122,10.961,37.382c-2.382,13.327-11.694,25.055-23.989,30.669c-18.325,8.763-42.297,2.099-53.208-15.109
		c-12.094-17.308-8.263-43.28,8.329-56.373C574.736,1122.207,581.9,1118.959,589.413,1117.826z"/>
	<path stroke="#000000" stroke-width="0.5" d="M869.297,1117.826c12.344-2.099,25.455,1.932,34.817,10.195
		c11.678,10.295,16.992,27.27,12.927,42.363c-4.165,17.408-20.474,31.052-38.382,31.885c-14.543,1.183-29.253-5.897-37.582-17.842
		c-9.196-12.744-10.328-30.785-2.782-44.562C844.359,1128.138,856.253,1119.742,869.297,1117.826z"/>
	<path fill="#F5C5C5" stroke="#F5C5C5" stroke-width="0.5" d="M1057.458,1239.202c15.893-2.465,32.568-0.466,47.094,6.614
		c20.79,9.362,36.583,28.486,42.963,50.26c6.23,22.506,2.849,47.961-10.761,67.168c-13.061,20.14-36.05,32.968-59.805,34.967
		c-21.956,2.016-44.446-6.047-60.671-20.84c-24.788-22.006-33.018-60.338-19.474-90.59
		C1007.265,1261.991,1030.854,1243.4,1057.458,1239.202z"/>
	<path stroke="#000000" stroke-width="0.5" d="M700.677,1253.745c16.392-9.529,36.566-11.045,54.824-6.93
		c13.194,3.348,26.971,10.445,32.868,23.422c4.748,10.428,0.4,22.123-4.881,31.452c-9.529,15.992-25.521,29.903-44.812,31.102
		c0,8.879-0.833,17.925,0.3,26.737c25.671,19.224,55.19,33.901,86.692,40.498c23.256,4.898,47.927,4.131,70.317-4.215
		c19.907-7.146,37.066-20.357,51.376-35.716c0.916-0.183,2.715-0.55,3.615-0.733c-2.166,5.164-6.813,8.563-10.645,12.444
		c-19.074,18.075-43.779,30.569-70.017,33.501c-28.753,3.632-57.873-3.165-84.21-14.493c-17.458-7.696-34.201-17.159-49.31-28.82
		c-25.388,18.974-54.391,33.584-85.41,40.597c-24.655,5.564-51.026,5.198-74.898-3.615c-21.007-7.53-39.098-21.523-54.008-37.899
		c0.783-0.833,1.583-1.633,2.382-2.432c16.492,18.491,37.466,33.601,61.621,40.081c29.403,8.346,60.938,3.848,89.141-6.764
		c20.773-7.763,40.331-18.658,58.156-31.818c2.266-1.383,1.233-4.481,1.549-6.597c-0.05-6.913-0.033-13.81-0.1-20.707
		c-18.508-1-34.201-13.71-43.846-28.803c-4.948-8.13-9.229-17.525-8.096-27.271C684.434,1266.589,692.314,1258.809,700.677,1253.745
		z"/>
	<path fill="#F5C5C5" stroke="#F5C5C5" stroke-width="0.5" d="M409.614,1252.612c14.826-0.45,29.903,2.982,42.68,10.628
		c24.405,13.41,40.248,40.747,40.214,68.534c0.483,23.506-10.179,47.061-28.27,62.104c-14.11,12.044-32.485,19.008-51.093,18.724
		c-24.022,0.95-47.411-10.895-62.804-28.986c-10.245-12.877-16.675-28.77-17.825-45.229c-1.249-17.858,3.732-36.066,13.777-50.876
		C360.138,1266.589,384.61,1253.428,409.614,1252.612z"/>
</g>
</svg>
